<?xml version="1.0" encoding="UTF-8" standalone="no"?>
<svg
   xmlns:dc="http://purl.org/dc/elements/1.1/"
   xmlns:cc="http://creativecommons.org/ns#"
   xmlns:rdf="http://www.w3.org/1999/02/22-rdf-syntax-ns#"
   xmlns:svg="http://www.w3.org/2000/svg"
   xmlns="http://www.w3.org/2000/svg"
   xmlns:sodipodi="http://sodipodi.sourceforge.net/DTD/sodipodi-0.dtd"
   xmlns:inkscape="http://www.inkscape.org/namespaces/inkscape"
   inkscape:version="1.0 (4035a4fb49, 2020-05-01)"
   sodipodi:docname="HtmlToSvg.svg"
   id="svg54"
   version="1.2"
   height="19"
   width="20">
  <metadata
     id="metadata58">
    <rdf:RDF>
      <cc:Work
         rdf:about="">
        <dc:format>image/svg+xml</dc:format>
        <dc:type
           rdf:resource="http://purl.org/dc/dcmitype/StillImage" />
        <dc:title></dc:title>
      </cc:Work>
    </rdf:RDF>
  </metadata>
  <sodipodi:namedview
     inkscape:current-layer="svg54"
     inkscape:window-maximized="1"
     inkscape:window-y="-9"
     inkscape:window-x="2391"
     inkscape:cy="20.180774"
     inkscape:cx="25.000064"
     inkscape:zoom="16.599958"
     units="px"
     showgrid="false"
     id="namedview56"
     inkscape:window-height="1001"
     inkscape:window-width="1920"
     inkscape:pageshadow="2"
     inkscape:pageopacity="0"
     guidetolerance="10"
     gridtolerance="10"
     objecttolerance="10"
     borderopacity="1"
     bordercolor="#666666"
     pagecolor="#ffffff" />
  <desc
     id="desc2">Created by HiQPdf</desc>
  <defs
     id="defs4" />
  <g
     transform="translate(-10.094971,-10)"
     id="g52"
     stroke-linejoin="bevel"
     stroke-linecap="square"
     fill-rule="evenodd"
     stroke-width="1"
     stroke="#000000"
     fill="none">
    <g
       id="g6"
       stroke-miterlimit="2"
       stroke-linejoin="miter"
       stroke-linecap="square"
       stroke-width="1"
       stroke-opacity="1"
       stroke="#000000"
       fill-opacity="1"
       fill="#000000" />
    <g
       id="g8"
       stroke-miterlimit="2"
       stroke-linejoin="miter"
       stroke-linecap="square"
       stroke-width="1"
       stroke-opacity="1"
       stroke="#000000"
       fill-opacity="1"
       fill="#000000" />
    <g
       id="g10"
       stroke-miterlimit="2"
       stroke-linejoin="miter"
       stroke-linecap="square"
       stroke-width="1"
       stroke-opacity="1"
       stroke="#000000"
       fill-opacity="1"
       fill="#000000" />
    <g
       id="g12"
       stroke-miterlimit="2"
       stroke-linejoin="miter"
       stroke-linecap="square"
       stroke-width="1"
       stroke-opacity="1"
       stroke="#000000"
       fill-opacity="1"
       fill="#000000" />
    <g
       id="g14"
       transform="translate(8,8)"
       stroke-miterlimit="2"
       stroke-linejoin="miter"
       stroke-linecap="square"
       stroke-width="1"
       stroke-opacity="1"
       stroke="#000000"
       fill-opacity="1"
       fill="#000000" />
    <g
       id="g18"
       transform="translate(8,8)"
       stroke="none"
       fill-opacity="1"
       fill="#686868">
      <path
         id="path16"
         d="M 14,8 C 14,7.44772 13.5523,7 13,7 H 9.76001 L 10.3657,3.58738 C 10.4201,3.28107 10.1845,3 9.87344,3 H 8.88907 C 8.64664,3 8.43914,3.17391 8.39677,3.41262 L 7.76001,7 H 4.18011 C 3.93722,7 3.72946,7.17456 3.68759,7.41381 l -0.175,1 C 3.45905,8.71977 3.69449,9 4.00511,9 h 3.4049 l -1.06,6 h -3.5799 c -0.24289,0 -0.45065,0.1746 -0.49252,0.4138 l -0.175,1 C 2.04905,16.7198 2.28449,17 2.59511,17 h 3.4049 L 5.39427,20.4126 C 5.3399,20.7189 5.57547,21 5.88657,21 h 0.98437 c 0.24243,0 0.44994,-0.1739 0.49231,-0.4126 L 8.00001,17 H 14 l -0.6057,3.4126 C 13.3399,20.7189 13.5755,21 13.8866,21 h 0.9843 c 0.2425,0 0.45,-0.1739 0.4923,-0.4126 L 16,17 h 3.5799 c 0.2429,0 0.4507,-0.1746 0.4925,-0.4138 l 0.175,-1 C 20.301,15.2802 20.0655,15 19.7549,15 H 16.35 l 0.3258,-1.8442 C 16.7823,12.5529 16.3186,12 15.7063,12 c -0.4777,0 -0.8864,0.3429 -0.9695,0.8133 L 14.3504,15 H 8.35045 l 1.06,-6 H 13 c 0.5523,0 1,-0.44772 1,-1"
         fill-rule="nonzero"
         vector-effect="none" />
    </g>
    <g
       id="g20"
       transform="translate(8,8)"
       stroke-miterlimit="2"
       stroke-linejoin="miter"
       stroke-linecap="square"
       stroke-width="1"
       stroke-opacity="1"
       stroke="#000000"
       fill-opacity="1"
       fill="#000000" />
    <g
       id="g24"
       transform="translate(8,8)"
       stroke="none"
       fill-opacity="1"
       fill="#686868">
      <path
         id="path22"
         d="M 21.025,5 V 4 C 21.025,2.88 20.05,2 19,2 17.95,2 17,2.88 17,4 v 1 c -0.5523,0 -1,0.44772 -1,1 v 3 c 0,0.55228 0.4477,1 1,1 h 2 2 c 0.5523,0 1,-0.44772 1,-1 V 5.975 C 22,5.43652 21.5635,5 21.025,5 M 20,5 H 18 V 4 c 0,-0.57143 0.4667,-1 1,-1 0.5333,0 1,0.42857 1,1 v 1"
         fill-rule="nonzero"
         vector-effect="none" />
    </g>
    <g
       id="g26"
       transform="translate(8,8)"
       stroke-miterlimit="2"
       stroke-linejoin="miter"
       stroke-linecap="square"
       stroke-width="1"
       stroke-opacity="1"
       stroke="#000000"
       fill-opacity="1"
       fill="#000000" />
    <g
       id="g28"
       transform="translate(8,8)"
       stroke-miterlimit="2"
       stroke-linejoin="miter"
       stroke-linecap="square"
       stroke-width="1"
       stroke-opacity="1"
       stroke="#000000"
       fill-opacity="1"
       fill="#000000" />
    <g
       id="g30"
       stroke-miterlimit="2"
       stroke-linejoin="miter"
       stroke-linecap="square"
       stroke-width="1"
       stroke-opacity="1"
       stroke="#000000"
       fill-opacity="1"
       fill="#000000" />
    <g
       id="g32"
       stroke-miterlimit="2"
       stroke-linejoin="miter"
       stroke-linecap="square"
       stroke-width="1"
       stroke-opacity="1"
       stroke="#000000"
       fill-opacity="1"
       fill="#000000" />
    <g
       id="g34"
       stroke-miterlimit="2"
       stroke-linejoin="miter"
       stroke-linecap="square"
       stroke-width="1"
       stroke-opacity="1"
       stroke="#000000"
       fill-opacity="1"
       fill="#000000" />
    <g
       id="g36"
       stroke-miterlimit="2"
       stroke-linejoin="miter"
       stroke-linecap="square"
       stroke-width="1"
       stroke-opacity="1"
       stroke="#000000"
       fill-opacity="1"
       fill="#000000" />
    <g
       id="g38"
       transform="translate(8,8)"
       stroke-miterlimit="2"
       stroke-linejoin="miter"
       stroke-linecap="square"
       stroke-width="1"
       stroke-opacity="1"
       stroke="#000000"
       fill-opacity="1"
       fill="#000000" />
    <g
       id="g40"
       stroke-miterlimit="2"
       stroke-linejoin="miter"
       stroke-linecap="square"
       stroke-width="1"
       stroke-opacity="1"
       stroke="#000000"
       fill-opacity="1"
       fill="#000000" />
    <g
       id="g42"
       stroke-miterlimit="2"
       stroke-linejoin="miter"
       stroke-linecap="square"
       stroke-width="1"
       stroke-opacity="1"
       stroke="#000000"
       fill-opacity="1"
       fill="#000000" />
    <g
       id="g44"
       stroke-miterlimit="2"
       stroke-linejoin="miter"
       stroke-linecap="square"
       stroke-width="1"
       stroke-opacity="1"
       stroke="#000000"
       fill-opacity="1"
       fill="#000000" />
    <g
       id="g46"
       stroke-miterlimit="2"
       stroke-linejoin="miter"
       stroke-linecap="square"
       stroke-width="1"
       stroke-opacity="1"
       stroke="#000000"
       fill-opacity="1"
       fill="#000000" />
    <g
       id="g48"
       stroke-miterlimit="2"
       stroke-linejoin="miter"
       stroke-linecap="square"
       stroke-width="1"
       stroke-opacity="1"
       stroke="#000000"
       fill-opacity="1"
       fill="#000000" />
    <g
       id="g50"
       stroke-miterlimit="2"
       stroke-linejoin="miter"
       stroke-linecap="square"
       stroke-width="1"
       stroke-opacity="1"
       stroke="#000000"
       fill-opacity="1"
       fill="#000000" />
  </g>
</svg>
